HIERARCHY
ROOT mixamorig:Hips
{
	OFFSET 0.000000 201.639420 0.000000
	CHANNELS 6 Xposition Yposition Zposition Xrotation Yrotation Zrotation
	JOINT mixamorig:Spine
	{
		OFFSET 0.006200 19.524994 -2.481800
		CHANNELS 3 Xrotation Yrotation Zrotation
		JOINT mixamorig:Spine1
		{
			OFFSET -0.000900 22.835007 -2.825400
			CHANNELS 3 Xrotation Yrotation Zrotation
			JOINT mixamorig:Spine2
			{
				OFFSET -0.020600 26.552490 -3.193300
				CHANNELS 3 Xrotation Yrotation Zrotation
				JOINT mixamorig:Neck
				{
					OFFSET -0.060000 30.701813 1.352200
					CHANNELS 3 Xrotation Yrotation Zrotation
					JOINT mixamorig:Head
					{
						OFFSET -0.087200 22.547607 3.670900
						CHANNELS 3 Xrotation Yrotation Zrotation
						JOINT mixamorig:HeadTop_End
						{
							OFFSET -0.830600 40.355194 7.893500
							CHANNELS 3 Xrotation Yrotation Zrotation
							End Site
							{
								OFFSET 0.000000 30.592346 0.000000
							}
						}
						JOINT mixamorig:RightEye
						{
							OFFSET -6.302100 18.118591 16.197100
							CHANNELS 3 Xrotation Yrotation Zrotation
							End Site
							{
								OFFSET 0.000000 30.592346 0.000000
							}
						}
						JOINT mixamorig:LeftEye
						{
							OFFSET 6.741500 18.382690 16.401899
							CHANNELS 3 Xrotation Yrotation Zrotation
							End Site
							{
								OFFSET 0.000000 30.592346 0.000000
							}
						}
					}
				}
				JOINT mixamorig:LeftShoulder
				{
					OFFSET 11.924900 18.230499 1.425400
					CHANNELS 3 Xrotation Yrotation Zrotation
					JOINT mixamorig:LeftArm
					{
						OFFSET 25.435989 -0.697632 -5.229300
						CHANNELS 3 Xrotation Yrotation Zrotation
						JOINT mixamorig:LeftForeArm
						{
							OFFSET 54.684776 0.000000 0.000000
							CHANNELS 3 Xrotation Yrotation Zrotation
							JOINT mixamorig:LeftHand
							{
								OFFSET 55.098175 0.000000 0.000000
								CHANNELS 3 Xrotation Yrotation Zrotation
								JOINT mixamorig:LeftHandMiddle1
								{
									OFFSET 23.369751 0.000000 0.000000
									CHANNELS 3 Xrotation Yrotation Zrotation
									JOINT mixamorig:LeftHandMiddle2
									{
										OFFSET 6.378677 0.000000 0.000000
										CHANNELS 3 Xrotation Yrotation Zrotation
										JOINT mixamorig:LeftHandMiddle3
										{
											OFFSET 6.148331 0.000000 0.000000
											CHANNELS 3 Xrotation Yrotation Zrotation
											JOINT mixamorig:LeftHandMiddle4
											{
												OFFSET 6.582504 0.000000 0.000000
												CHANNELS 3 Xrotation Yrotation Zrotation
												End Site
												{
													OFFSET -1.168900 6.395691 1.028606
												}
											}
										}
									}
								}
								JOINT mixamorig:LeftHandThumb1
								{
									OFFSET 7.235672 -3.848206 5.434273
									CHANNELS 3 Xrotation Yrotation Zrotation
									JOINT mixamorig:LeftHandThumb2
									{
										OFFSET 6.568451 -3.792297 3.792300
										CHANNELS 3 Xrotation Yrotation Zrotation
										JOINT mixamorig:LeftHandThumb3
										{
											OFFSET 6.063080 -3.500519 3.500518
											CHANNELS 3 Xrotation Yrotation Zrotation
											JOINT mixamorig:LeftHandThumb4
											{
												OFFSET 4.793182 -2.767334 2.767349
												CHANNELS 3 Xrotation Yrotation Zrotation
												End Site
												{
													OFFSET 0.101639 6.054260 1.275483
												}
											}
										}
									}
								}
								JOINT mixamorig:LeftHandIndex1
								{
									OFFSET 23.101074 -0.309540 4.992809
									CHANNELS 3 Xrotation Yrotation Zrotation
									JOINT mixamorig:LeftHandIndex2
									{
										OFFSET 6.226883 0.000000 0.000000
										CHANNELS 3 Xrotation Yrotation Zrotation
										JOINT mixamorig:LeftHandIndex3
										{
											OFFSET 6.094330 0.000000 0.000000
											CHANNELS 3 Xrotation Yrotation Zrotation
											JOINT mixamorig:LeftHandIndex4
											{
												OFFSET 5.482605 0.000000 0.000000
												CHANNELS 3 Xrotation Yrotation Zrotation
												End Site
												{
													OFFSET -1.427902 5.233032 0.797164
												}
											}
										}
									}
								}
								JOINT mixamorig:LeftHandRing1
								{
									OFFSET 22.299240 0.021149 -3.964172
									CHANNELS 3 Xrotation Yrotation Zrotation
									JOINT mixamorig:LeftHandRing2
									{
										OFFSET 6.321869 0.000000 0.000000
										CHANNELS 3 Xrotation Yrotation Zrotation
										JOINT mixamorig:LeftHandRing3
										{
											OFFSET 5.899796 0.000000 0.000000
											CHANNELS 3 Xrotation Yrotation Zrotation
											JOINT mixamorig:LeftHandRing4
											{
												OFFSET 6.517899 0.000000 0.000000
												CHANNELS 3 Xrotation Yrotation Zrotation
												End Site
												{
													OFFSET -1.637299 6.232208 0.980890
												}
											}
										}
									}
								}
								JOINT mixamorig:LeftHandPinky1
								{
									OFFSET 20.463791 -0.302338 -8.562233
									CHANNELS 3 Xrotation Yrotation Zrotation
									JOINT mixamorig:LeftHandPinky2
									{
										OFFSET 6.908646 0.000000 0.000000
										CHANNELS 3 Xrotation Yrotation Zrotation
										JOINT mixamorig:LeftHandPinky3
										{
											OFFSET 4.622849 0.000000 0.000000
											CHANNELS 3 Xrotation Yrotation Zrotation
											JOINT mixamorig:LeftHandPinky4
											{
												OFFSET 5.216080 0.000000 0.000000
												CHANNELS 3 Xrotation Yrotation Zrotation
												End Site
												{
													OFFSET -0.606308 5.116241 0.814926
												}
											}
										}
									}
								}
							}
						}
					}
				}
				JOINT mixamorig:RightShoulder
				{
					OFFSET -12.001300 18.284088 1.348900
					CHANNELS 3 Xrotation Yrotation Zrotation
					JOINT mixamorig:RightArm
					{
						OFFSET -25.308500 -0.751312 -5.164599
						CHANNELS 3 Xrotation Yrotation Zrotation
						JOINT mixamorig:RightForeArm
						{
							OFFSET -54.684429 0.000000 0.000000
							CHANNELS 3 Xrotation Yrotation Zrotation
							JOINT mixamorig:RightHand
							{
								OFFSET -55.150291 0.000000 0.000000
								CHANNELS 3 Xrotation Yrotation Zrotation
								JOINT mixamorig:RightHandMiddle1
								{
									OFFSET -23.317566 0.000000 0.000000
									CHANNELS 3 Xrotation Yrotation Zrotation
									JOINT mixamorig:RightHandMiddle2
									{
										OFFSET -6.378403 0.000000 0.000000
										CHANNELS 3 Xrotation Yrotation Zrotation
										JOINT mixamorig:RightHandMiddle3
										{
											OFFSET -6.148193 0.000000 0.000000
											CHANNELS 3 Xrotation Yrotation Zrotation
											JOINT mixamorig:RightHandMiddle4
											{
												OFFSET -6.583389 0.000000 0.000000
												CHANNELS 3 Xrotation Yrotation Zrotation
												End Site
												{
													OFFSET 1.171692 6.395905 1.029786
												}
											}
										}
									}
								}
								JOINT mixamorig:RightHandThumb1
								{
									OFFSET -7.190521 -3.860474 5.435846
									CHANNELS 3 Xrotation Yrotation Zrotation
									JOINT mixamorig:RightHandThumb2
									{
										OFFSET -6.567429 -3.791718 3.791708
										CHANNELS 3 Xrotation Yrotation Zrotation
										JOINT mixamorig:RightHandThumb3
										{
											OFFSET -6.062469 -3.500153 3.500166
											CHANNELS 3 Xrotation Yrotation Zrotation
											JOINT mixamorig:RightHandThumb4
											{
												OFFSET -4.792618 -2.767029 2.767022
												CHANNELS 3 Xrotation Yrotation Zrotation
												End Site
												{
													OFFSET -0.100327 6.053253 1.276754
												}
											}
										}
									}
								}
								JOINT mixamorig:RightHandIndex1
								{
									OFFSET -23.048981 -0.310791 4.992554
									CHANNELS 3 Xrotation Yrotation Zrotation
									JOINT mixamorig:RightHandIndex2
									{
										OFFSET -6.227539 0.000000 0.000000
										CHANNELS 3 Xrotation Yrotation Zrotation
										JOINT mixamorig:RightHandIndex3
										{
											OFFSET -6.095047 0.000000 0.000000
											CHANNELS 3 Xrotation Yrotation Zrotation
											JOINT mixamorig:RightHandIndex4
											{
												OFFSET -5.484772 0.000000 0.000000
												CHANNELS 3 Xrotation Yrotation Zrotation
												End Site
												{
													OFFSET 1.420593 5.237305 0.797056
												}
											}
										}
									}
								}
								JOINT mixamorig:RightHandRing1
								{
									OFFSET -22.246323 0.020569 -3.963762
									CHANNELS 3 Xrotation Yrotation Zrotation
									JOINT mixamorig:RightHandRing2
									{
										OFFSET -6.322128 0.000000 0.000000
										CHANNELS 3 Xrotation Yrotation Zrotation
										JOINT mixamorig:RightHandRing3
										{
											OFFSET -5.900024 0.000000 0.000000
											CHANNELS 3 Xrotation Yrotation Zrotation
											JOINT mixamorig:RightHandRing4
											{
												OFFSET -6.518356 0.000000 0.000000
												CHANNELS 3 Xrotation Yrotation Zrotation
												End Site
												{
													OFFSET 1.636398 6.232697 0.982186
												}
											}
										}
									}
								}
								JOINT mixamorig:RightHandPinky1
								{
									OFFSET -20.411011 -0.303314 -8.561701
									CHANNELS 3 Xrotation Yrotation Zrotation
									JOINT mixamorig:RightHandPinky2
									{
										OFFSET -6.907349 0.000000 0.000000
										CHANNELS 3 Xrotation Yrotation Zrotation
										JOINT mixamorig:RightHandPinky3
										{
											OFFSET -4.623840 0.000000 0.000000
											CHANNELS 3 Xrotation Yrotation Zrotation
											JOINT mixamorig:RightHandPinky4
											{
												OFFSET -5.218353 0.000000 0.000000
												CHANNELS 3 Xrotation Yrotation Zrotation
												End Site
												{
													OFFSET 0.602097 5.118835 0.816273
												}
											}
										}
									}
								}
							}
						}
					}
				}
			}
		}
	}
	JOINT mixamorig:LeftUpLeg
	{
		OFFSET 18.168400 -13.561905 -0.039000
		CHANNELS 3 Xrotation Yrotation Zrotation
		JOINT mixamorig:LeftLeg
		{
			OFFSET 0.577358 -80.825211 -3.695000
			CHANNELS 3 Xrotation Yrotation Zrotation
			JOINT mixamorig:LeftFoot
			{
				OFFSET -0.577356 -83.370262 -6.520700
				CHANNELS 3 Xrotation Yrotation Zrotation
				JOINT mixamorig:LeftToeBase
				{
					OFFSET 0.750401 -20.798306 25.135401
					CHANNELS 3 Xrotation Yrotation Zrotation
					JOINT mixamorig:LeftToe_End
					{
						OFFSET -0.000500 0.001200 19.917799
						CHANNELS 3 Xrotation Yrotation Zrotation
						End Site
						{
							OFFSET 0.000000 19.917805 0.000000
						}
					}
				}
			}
		}
	}
	JOINT mixamorig:RightUpLeg
	{
		OFFSET -18.162500 -13.585098 -0.041000
		CHANNELS 3 Xrotation Yrotation Zrotation
		JOINT mixamorig:RightLeg
		{
			OFFSET -0.595024 -80.945297 -3.631900
			CHANNELS 3 Xrotation Yrotation Zrotation
			JOINT mixamorig:RightFoot
			{
				OFFSET 0.595024 -83.218193 -6.561200
				CHANNELS 3 Xrotation Yrotation Zrotation
				JOINT mixamorig:RightToeBase
				{
					OFFSET -0.753601 -20.807106 25.115000
					CHANNELS 3 Xrotation Yrotation Zrotation
					JOINT mixamorig:RightToe_End
					{
						OFFSET 0.000299 0.001700 19.918200
						CHANNELS 3 Xrotation Yrotation Zrotation
						End Site
						{
							OFFSET 0.000000 19.918203 0.000000
						}
					}
				}
			}
		}
	}
}
MOTION
Frames: 4
Frame Time: 0.033333
6.512833 185.609131 -64.086029 17.407850 0.724264 -0.180983 0.288813 -0.753572 0.209419 0.653926 -1.830908 -1.052587 0.655741 -1.831694 -1.049994 -2.996395 1.119226 0.316273 -6.032479 6.098676 -0.632912 -0.000000 -0.000000 0.000000 -0.000000 -0.000000 0.000000 -0.000000 -0.000000 0.000000 0.085444 3.935089 -2.580510 -56.776241 -47.958798 -86.499633 -0.000005 -99.510051 0.000025 30.651447 -40.355838 1.595638 0.000001 -0.001982 0.016429 0.000002 0.001935 -0.015983 -0.000001 -0.000005 -0.000005 -0.000001 -0.000000 0.000002 -1.514516 3.689240 6.142661 3.939044 7.948698 0.746803 -0.579457 1.574991 2.538710 0.000001 0.000000 -0.000002 0.000001 -0.000053 0.000441 -0.000009 -0.000009 0.000006 0.000005 0.000006 0.000002 -0.000000 -0.000002 0.000002 -0.000002 -0.000050 0.000424 0.000003 0.000001 -0.000026 -0.000002 0.000002 -0.000004 -0.000002 0.000000 -0.000003 -0.018115 4.054206 0.511489 -0.018087 -4.054240 -0.511060 0.000003 0.000002 0.000002 -0.000001 -0.000001 0.000005 0.341128 -4.421372 7.505370 11.665799 -24.096274 54.698422 -0.000007 14.091771 0.000004 26.699599 -41.006864 9.432753 -0.000001 0.000004 -0.000001 0.000000 0.000002 -0.000002 -0.000011 -0.000003 0.000005 -0.000001 -0.000001 -0.000001 -1.738587 -3.581785 -6.586138 4.637207 -8.634145 -0.225415 -1.273761 0.137314 -2.094864 0.000001 -0.000000 0.000000 -0.000007 0.000007 -0.000012 -0.000004 -0.000007 0.000001 0.000006 0.000003 0.000005 0.000002 0.000000 -0.000002 -0.000006 0.000005 -0.000009 0.000004 -0.000002 -0.000005 -0.000002 0.000001 0.000003 -0.000002 0.000002 0.000000 -0.000001 0.000004 -0.000005 -0.000002 -0.000000 0.000003 -0.000003 0.000001 0.000007 0.000000 -0.000001 0.000001 -47.510868 11.953142 -3.608117 52.173312 10.309730 -9.701960 -12.088961 29.497354 5.560992 -17.033365 -0.081445 0.935271 -0.000000 -0.000001 -0.000000 -5.715628 -3.847066 9.652615 20.998771 -10.432349 0.683806 -23.537366 -11.562060 -9.120713 -15.090282 -0.000004 -0.000001 0.000000 -0.000002 0.000000 
6.977389 182.490112 -67.137634 18.242756 -2.256184 0.049337 0.492288 -0.568128 0.552144 1.063931 -1.195068 -0.944048 1.066427 -1.193944 -0.942641 -3.717275 1.476828 -0.421961 -7.822807 7.031213 -1.337923 -0.000001 0.000000 0.000000 -0.000001 0.000000 0.000000 -0.000001 0.000000 0.000000 0.049187 4.276956 -3.011936 -58.871176 -48.137312 -87.986845 -0.000558 -99.805040 -0.000592 31.520701 -40.160901 4.450594 -0.000002 -0.001938 0.016085 0.000004 0.001936 -0.015980 -0.000001 -0.000007 -0.000009 0.000001 -0.000000 0.000001 -1.511685 3.689924 6.142420 3.939045 7.948698 0.746804 -0.579460 1.574991 2.538711 0.000001 0.000000 -0.000003 -0.000003 -0.000017 0.000108 -0.000010 -0.000009 0.000006 0.000005 0.000005 -0.000002 -0.000000 0.000001 -0.000002 -0.000002 -0.000018 0.000113 0.000002 0.000002 -0.000026 -0.000001 0.000001 -0.000007 -0.000002 -0.000001 -0.000001 -0.018094 4.054239 0.511201 -0.018088 -4.054244 -0.511061 0.000002 0.000005 -0.000001 -0.000001 0.000001 0.000000 0.384399 -3.724215 6.943322 8.764605 -19.063043 55.509955 0.000004 13.884468 0.000001 18.001015 -41.050243 -0.615208 -0.000001 0.000002 -0.000001 0.000001 -0.000001 -0.000007 -0.000010 -0.000003 0.000004 0.000001 -0.000001 -0.000000 -1.740306 -3.581780 -6.586127 4.637205 -8.634143 -0.225417 -1.273759 0.137313 -2.094862 0.000002 0.000001 -0.000002 -0.000000 0.000004 0.000001 -0.000007 -0.000003 -0.000006 0.000003 0.000006 0.000001 -0.000001 -0.000001 0.000001 -0.000006 0.000006 -0.000006 0.000000 0.000000 -0.000001 -0.000003 0.000002 0.000002 0.000001 0.000001 -0.000001 -0.000001 0.000005 0.000000 0.000000 -0.000003 0.000001 0.000000 0.000000 0.000005 0.000000 -0.000000 0.000001 -49.527153 12.599106 -2.784549 53.793378 11.384485 -9.614563 -19.401017 28.285798 9.416375 -11.979460 0.000010 0.000004 0.000000 -0.000003 0.000000 -6.147532 -2.429458 10.293390 20.271665 -9.911420 -0.785281 -30.934152 -8.553315 -9.886374 -5.939071 0.000008 0.000001 -0.000000 0.000001 -0.000001 
7.080905 183.137390 -68.275581 18.586669 -3.999528 0.734838 0.730380 -0.592419 0.310929 1.462661 -1.018494 -0.974987 1.464477 -1.015909 -0.975017 -3.898220 1.820922 -0.923153 -7.352191 8.039164 -1.462534 -0.000000 -0.000000 0.000000 -0.000000 -0.000000 0.000000 -0.000000 -0.000000 0.000000 0.041106 4.597991 -3.728500 -59.199292 -48.027510 -90.513865 -0.001012 -98.622276 -0.000993 32.627684 -40.090489 5.873896 0.000001 -0.001909 0.015849 0.000004 0.001935 -0.015980 -0.000002 -0.000005 -0.000005 -0.000003 0.000001 0.000003 -1.508835 3.690480 6.142262 3.939043 7.948698 0.746806 -0.579458 1.574992 2.538707 0.000000 0.000000 -0.000002 0.000000 0.000018 -0.000132 -0.000009 -0.000008 0.000009 0.000005 0.000005 0.000001 -0.000002 0.000000 -0.000000 -0.000001 0.000017 -0.000126 0.000003 0.000002 -0.000026 0.000002 0.000001 -0.000006 0.000001 0.000000 -0.000001 -0.018075 4.054274 0.510923 -0.018085 -4.054241 -0.511062 0.000002 0.000004 0.000002 -0.000002 0.000001 0.000001 0.445534 -2.911937 6.484868 6.747445 -15.608307 58.169559 -0.000010 12.515634 -0.000019 19.691015 -34.679746 0.324498 0.000003 -0.000001 0.000002 0.000000 0.000002 -0.000002 -0.000010 -0.000002 0.000003 -0.000001 -0.000002 0.000001 -1.742056 -3.581796 -6.586133 4.637208 -8.634144 -0.225416 -1.273756 0.137312 -2.094862 -0.000001 0.000000 0.000000 0.000010 -0.000007 0.000006 -0.000004 -0.000001 0.000003 0.000001 0.000004 0.000006 0.000002 -0.000000 0.000000 0.000007 -0.000003 0.000003 0.000001 -0.000002 -0.000004 -0.000001 0.000001 0.000001 0.000001 -0.000002 0.000006 0.000009 -0.000005 0.000003 -0.000003 0.000001 -0.000001 -0.000005 0.000001 0.000005 -0.000002 0.000003 -0.000003 -49.139284 13.196211 -2.502259 52.247751 11.891929 -9.545037 -19.779774 27.735283 9.887373 -13.321898 0.000014 -0.000004 -0.000000 -0.000001 0.000000 -7.780759 -1.883172 9.657400 21.665835 -9.960525 -1.496021 -30.109325 -7.481488 -7.681295 -6.760183 0.000003 -0.000002 -0.000000 0.000001 0.000000 
6.784818 187.793701 -67.540314 18.007580 -3.013886 1.800276 0.961595 -1.118042 -0.963525 1.732079 -1.645689 -1.304703 1.730737 -1.643638 -1.309013 -3.314811 1.882074 -0.676211 -3.966199 8.503205 -1.085391 -0.000001 0.000000 0.000000 -0.000001 0.000000 0.000000 -0.000001 0.000000 0.000000 0.079220 4.682170 -4.476229 -57.592305 -47.676366 -93.134800 -0.001444 -96.267835 -0.001443 34.396471 -40.173305 4.990957 -0.000000 -0.001915 0.015888 0.000003 0.001933 -0.015970 -0.000001 -0.000006 -0.000004 0.000001 0.000000 -0.000000 -1.506009 3.690376 6.142292 3.939041 7.948698 0.746805 -0.579456 1.574990 2.538716 0.000000 -0.000000 -0.000000 -0.000000 0.000013 -0.000084 -0.000008 -0.000010 0.000007 0.000006 0.000005 0.000005 -0.000000 0.000000 -0.000000 -0.000002 0.000010 -0.000077 0.000003 0.000000 -0.000024 -0.000001 -0.000001 -0.000002 -0.000002 -0.000000 -0.000005 -0.018080 4.054265 0.510972 -0.018085 -4.054242 -0.511059 0.000002 0.000003 0.000001 0.000000 -0.000001 0.000005 0.480031 -2.568496 6.425433 6.244030 -13.778594 60.911709 0.000002 10.530099 0.000004 28.204503 -23.627277 11.228028 -0.000001 -0.000010 0.000001 0.000001 -0.000001 -0.000004 -0.000007 -0.000007 0.000008 0.000004 -0.000002 -0.000001 -1.743854 -3.581811 -6.586150 4.637205 -8.634146 -0.225415 -1.273761 0.137315 -2.094862 -0.000001 -0.000001 0.000001 -0.000001 -0.000016 -0.000002 -0.000005 -0.000008 -0.000001 0.000003 0.000007 -0.000000 -0.000000 -0.000003 -0.000003 -0.000008 -0.000015 -0.000010 0.000000 -0.000002 -0.000004 -0.000001 0.000004 0.000002 0.000001 0.000003 0.000001 -0.000005 -0.000009 -0.000007 -0.000002 -0.000000 -0.000000 0.000001 0.000002 0.000006 0.000001 -0.000001 -0.000000 -45.092110 12.414219 -4.021993 46.152896 11.537534 -9.530908 -13.715462 28.170460 8.445592 -16.488975 -0.000008 -0.000006 -0.000000 -0.000002 0.000000 -9.218532 -2.509695 7.348817 23.293474 -10.480492 -1.144325 -20.151532 -6.873868 -3.055419 -17.602975 -0.000003 -0.000004 -0.000001 0.000001 0.000000 
